<svg xmlns="http://www.w3.org/2000/svg" width="273" height="17.161" viewBox="0 0 273 17.161">
  <path id="교차_1" data-name="교차 1" d="M257.1,17.893l-13.509,10-.029-.022v-.144l-.176.13-13.5-10-13.5,10-13.505-10-13.506,10-13.506-10-13.506,10-13.506-10-13.509,10-8.163-6.128v-.069l-5.164-3.772-13.505,10-13.5-10-13.5,10-13.5-10-13.506,10-13.506-10L27.48,27.9l-13.506-10L.5,27.87V22.333L13.965,12.36l13.5,10,13.5-10,13.5,10,13.506-10,13.505,10L95,12.36l13.507,10,13.508-10L130.7,18.88l.6.451.112.084,1.142.858.292.219-.022,0,2.516,1.838,13.505-10,13.5,10,13.505-10,13.5,10,13.505-10,13.506,10,13.506-10,13.507,10,.184-.136v.154l.024.018,13.505-10,13.5,10,1.9-1.41V26.5l-1.892,1.4Z" transform="translate(0 -11.701)" fill="#128765" stroke="rgba(0,0,0,0)" stroke-miterlimit="10" stroke-width="1"/>
</svg>
