<svg xmlns="http://www.w3.org/2000/svg" width="243.129" height="15.573" viewBox="0 0 243.129 15.573">
  <path id="패스_1217" data-name="패스 1217" d="M229.438,0,215.932,10,202.425,0,188.92,10l-13.5-10-13.5,10-13.5-10L134.9,10l-2.517-1.838h.022l-.291-.218-1.142-.858-.112-.084-.6-.451L121.575.035l-13.509,10L94.56.035l-13.506,10L67.548.035l-13.506,10-13.5-10-13.5,10-13.5-10-13.505,10L0,10.021v5.531l.028.021,13.509-10,13.506,10,13.506-10,13.506,10,13.506-10,13.5,10,13.5-10,13.5,10,13.505-10,5.164,3.771V9.41l8.164,6.128,13.509-10,13.507,10,13.506-10,13.506,10,13.506-10,13.5,10,13.5-10,13.5,10,.176-.131V9.867l-.183.136Z" transform="translate(0 0)" fill="#d29bba"/>
</svg>
