<svg xmlns="http://www.w3.org/2000/svg" width="287.984" height="18.446" viewBox="0 0 287.984 18.446">
  <path id="패스_745" data-name="패스 745" d="M271.767,0l-16,11.849L239.771,0l-16,11.849L207.777,0l-16,11.849L175.788,0l-16,11.849L156.81,9.672h.026l-.345-.259L155.138,8.4l-.132-.1-.711-.534L144,.042,128,11.891,112,.042l-16,11.849L80.009.042l-16,11.849L48.015.042l-16,11.849L16.026.042l-16,11.849L0,11.87v6.551l.034.025,16-11.849,16,11.849,16-11.849,16,11.849,16-11.849,16,11.849,16-11.849,15.994,11.849,16-11.849,6.116,4.467v.082L159.8,18.4l16-11.849,16,11.849,16-11.849,16,11.849,16-11.849,16,11.849,16-11.849L287.775,18.4l.209-.155V11.688l-.217.161Z" transform="translate(0 0)" fill="#fcfcfc"/>
</svg>
