<svg xmlns="http://www.w3.org/2000/svg" width="242.284" height="17.474" viewBox="0 0 242.284 17.474">
  <path id="패스_1173" data-name="패스 1173" d="M227.129,0,211.975,11.226,196.822,0,181.67,11.226,166.519,0,151.365,11.226l-2.823-2.062h.023l-.326-.246-1.281-.962-.125-.094-.673-.505L136.412.04,121.255,11.264,106.1.04,90.945,11.264,75.79.04,60.635,11.264,45.484.04,30.331,11.264,15.181.04.027,11.264,0,11.245V17.45l.032.024L15.19,6.25,30.344,17.474,45.5,6.25,60.652,17.474,75.808,6.25,90.961,17.474,106.112,6.25l15.152,11.224L136.416,6.25l5.794,4.231v.079l9.161,6.876L166.527,6.21l15.156,11.226L196.838,6.21l15.155,11.226L227.147,6.21l15.137,11.213v-6.2h0Z" transform="translate(0 0)" fill="#eadb50"/>
</svg>
