<svg xmlns="http://www.w3.org/2000/svg" width="272.8" height="17.474" viewBox="0 0 272.8 17.474">
  <path id="패스_327" data-name="패스 327" d="M257.438,0,242.284,11.225,227.129,0,211.975,11.225,196.823,0,181.67,11.225,166.52,0,151.366,11.225l-2.824-2.062h.024l-.327-.245-1.281-.962-.125-.094-.673-.506L136.412.04,121.255,11.264,106.1.04,90.945,11.264,75.791.04,60.636,11.264,45.484.04,30.332,11.264,15.181.04.027,11.264,0,11.244V17.45l.032.024L15.19,6.249,30.344,17.474,45.5,6.249,60.653,17.474,75.808,6.249,90.961,17.474,106.113,6.249l15.151,11.225L136.417,6.249l5.794,4.232v.078l9.16,6.876L166.528,6.21l15.155,11.225L196.838,6.21l15.155,11.225L227.147,6.21,242.3,17.434,257.452,6.21,272.6,17.434l.2-.147V11.072l-.206.153Z" transform="translate(0 0)" fill="#eadb50"/>
</svg>
