<svg xmlns="http://www.w3.org/2000/svg" xmlns:xlink="http://www.w3.org/1999/xlink" width="141.906" height="25.998" viewBox="0 0 141.906 25.998">
  <defs>
    <clipPath id="clip-path">
      <rect id="사각형_75" data-name="사각형 75" width="18.874" height="18.874" fill="none"/>
    </clipPath>
    <clipPath id="clip-path-2">
      <rect id="사각형_614" data-name="사각형 614" width="39.783" height="20.6" fill="none"/>
    </clipPath>
    <clipPath id="clip-path-3">
      <rect id="사각형_38" data-name="사각형 38" width="44.383" height="18.442" fill="none"/>
    </clipPath>
  </defs>
  <g id="그룹_443" data-name="그룹 443" transform="translate(-111.192 -4171.253)">
    <g id="그룹_341" data-name="그룹 341" transform="translate(167.571 4171.253)">
      <ellipse id="타원_6" data-name="타원 6" cx="12.999" cy="12.999" rx="12.999" ry="12.999" transform="translate(0)" fill="#078d68"/>
      <g id="그룹_115" data-name="그룹 115" transform="translate(3.545 3.545)">
        <g id="그룹_22" data-name="그룹 22" transform="translate(0 0)" clip-path="url(#clip-path)">
          <path id="패스_65" data-name="패스 65" d="M18.846,8.89A9.446,9.446,0,0,0,10.356.047c-.149-.014-.3-.016-.452-.023S9.595,0,9.437,0c-.28,0-.555.018-.828.042C8.482.053,8.356.07,8.23.086a9.412,9.412,0,0,0-8.2,8.8C.017,9.072,0,9.252,0,9.437s.017.365.028.547a9.365,9.365,0,0,0,.794,3.287A9.513,9.513,0,0,0,8.23,18.788c.126.016.251.033.378.044.273.024.548.042.828.042.158,0,.311-.016.467-.024s.3-.009.452-.023a9.421,9.421,0,0,0,8.49-8.843c.011-.182.028-.362.028-.547s-.017-.365-.028-.547M16.154,4.51H13.209A12.753,12.753,0,0,0,11.15,1.272a8.349,8.349,0,0,1,5,3.237M5.394,8.89A11.092,11.092,0,0,1,6.064,5.6H12.47a11.092,11.092,0,0,1,.67,3.287Zm7.745,1.094a11.1,11.1,0,0,1-.67,3.287H6.064a11.1,11.1,0,0,1-.67-3.287ZM9.052,1.113c.128-.006.255-.019.385-.019h.024A11.837,11.837,0,0,1,12,4.51H6.532a11.823,11.823,0,0,1,2.52-3.4M7.29,1.384A12.726,12.726,0,0,0,5.325,4.51H2.72A8.351,8.351,0,0,1,7.29,1.384M2.035,5.6H4.9A12.16,12.16,0,0,0,4.3,8.89H1.121A8.27,8.27,0,0,1,2.035,5.6m0,7.667a8.27,8.27,0,0,1-.913-3.287H4.3a12.16,12.16,0,0,0,.6,3.287Zm.685,1.094h2.6A12.726,12.726,0,0,0,7.29,17.49,8.353,8.353,0,0,1,2.72,14.364m6.741,3.415H9.437c-.13,0-.256-.014-.385-.019a11.822,11.822,0,0,1-2.52-3.4H12a11.837,11.837,0,0,1-2.54,3.415M11.15,17.6a12.753,12.753,0,0,0,2.059-3.237h2.946a8.351,8.351,0,0,1-5,3.237m5.689-4.331H13.631a12.192,12.192,0,0,0,.6-3.287h3.52a8.276,8.276,0,0,1-.913,3.287M14.233,8.89a12.192,12.192,0,0,0-.6-3.287h3.209a8.276,8.276,0,0,1,.913,3.287Z" transform="translate(0 0)" fill="#fff"/>
        </g>
      </g>
    </g>
    <g id="그룹_622" data-name="그룹 622" transform="translate(111.192 4173.743)">
      <g id="그룹_621" data-name="그룹 621" transform="translate(0 0)" clip-path="url(#clip-path-2)">
        <path id="패스_1282" data-name="패스 1282" d="M.918,16.41a.918.918,0,0,1,.918.918A3.287,3.287,0,0,1,7.43,14.986a.918.918,0,0,0,1.288-1.308A5.123,5.123,0,0,0,0,17.328a.918.918,0,0,1,.918-.918" transform="translate(0 -4.652)" fill="#e5277c"/>
        <path id="패스_1283" data-name="패스 1283" d="M.918,20.836A.918.918,0,1,0,0,19.918a.918.918,0,0,0,.918.918" transform="translate(0 -7.242)" fill="#493077"/>
        <path id="패스_1284" data-name="패스 1284" d="M44.338,22.948c-.007-.022-.015-.045-.022-.067.007.022.015.045.022.067" transform="translate(-16.892 -8.721)" fill="#00a0cf"/>
        <path id="패스_1285" data-name="패스 1285" d="M47.089,21.8c.009.033.019.066.03.1-.011-.033-.02-.066-.03-.1" transform="translate(-17.948 -8.31)" fill="#00a0cf"/>
        <path id="패스_1286" data-name="패스 1286" d="M44.474,23.329l-.014-.037.014.037" transform="translate(-16.946 -8.878)" fill="#00a0cf"/>
        <path id="패스_1287" data-name="패스 1287" d="M47.161,22.035q.021.063.045.124c-.016-.041-.03-.083-.045-.124" transform="translate(-17.976 -8.399)" fill="#00a0cf"/>
        <path id="패스_1288" data-name="패스 1288" d="M47.306,22.413c-.022-.05-.044-.1-.064-.151.021.053.043.106.067.158l0-.007" transform="translate(-18.007 -8.485)" fill="#00a0cf"/>
        <path id="패스_1289" data-name="패스 1289" d="M44.222,22.568c-.007-.027-.016-.053-.023-.08.007.027.015.053.023.08" transform="translate(-16.847 -8.571)" fill="#00a0cf"/>
        <path id="패스_1290" data-name="패스 1290" d="M47.012,21.5c.01.045.02.089.032.133-.012-.044-.022-.088-.032-.133" transform="translate(-17.919 -8.195)" fill="#00a0cf"/>
        <path id="패스_1291" data-name="패스 1291" d="M48.525,12.553a4.73,4.73,0,0,0-4.6,4.839,5.148,5.148,0,0,0,.075.871.918.918,0,0,1,1.811-.3c0,.017.006.032.009.048a3.272,3.272,0,0,1-.059-.616,2.774,2.774,0,1,1,5.529,0,3.21,3.21,0,0,1-.174,1.051.918.918,0,0,0,1.736.6,5.062,5.062,0,0,0,.274-1.649,4.73,4.73,0,0,0-4.6-4.839" transform="translate(-16.742 -4.784)" fill="#00a0cf"/>
        <path id="패스_1292" data-name="패스 1292" d="M44.1,22.061c-.009-.043-.017-.086-.025-.129.008.043.016.087.025.129" transform="translate(-16.799 -8.359)" fill="#00a0cf"/>
        <path id="패스_1293" data-name="패스 1293" d="M46.987,21.369c0,.027.01.054.016.08-.006-.027-.011-.053-.016-.08" transform="translate(-17.91 -8.145)" fill="#f29500"/>
        <path id="패스_1294" data-name="패스 1294" d="M47.064,21.715c0,.019.011.037.015.054,0-.018-.011-.036-.015-.054" transform="translate(-17.939 -8.277)" fill="#f29500"/>
        <path id="패스_1295" data-name="패스 1295" d="M47.137,21.963l.015.045-.015-.045" transform="translate(-17.967 -8.371)" fill="#f29500"/>
        <path id="패스_1296" data-name="패스 1296" d="M45.795,23.725a.917.917,0,0,1-1.215-.459c-.035-.077-.067-.154-.1-.232a4.605,4.605,0,0,0,4.255,3,4.432,4.432,0,0,0,2.166-.568.918.918,0,0,0-.9-1.6,2.56,2.56,0,0,1-1.267.333,2.758,2.758,0,0,1-2.481-1.676.917.917,0,0,1-.462,1.207" transform="translate(-16.955 -8.583)" fill="#f29500"/>
        <path id="패스_1297" data-name="패스 1297" d="M47.232,22.236l.006.016-.006-.016" transform="translate(-18.003 -8.475)" fill="#f29500"/>
        <path id="패스_1298" data-name="패스 1298" d="M44.048,21.8c0,.026.011.052.015.078-.006-.031-.012-.063-.017-.093l0,.015" transform="translate(-16.789 -8.302)" fill="#f29500"/>
        <path id="패스_1299" data-name="패스 1299" d="M44.167,22.356c-.019-.071-.036-.143-.052-.215.016.072.033.144.052.215" transform="translate(-16.815 -8.439)" fill="#f29500"/>
        <path id="패스_1300" data-name="패스 1300" d="M44.285,22.78c-.017-.054-.033-.108-.049-.163.015.055.032.11.049.163" transform="translate(-16.861 -8.62)" fill="#f29500"/>
        <path id="패스_1301" data-name="패스 1301" d="M44.418,23.177c-.024-.063-.046-.125-.067-.188.022.064.044.126.067.188" transform="translate(-16.905 -8.762)" fill="#f29500"/>
        <path id="패스_1302" data-name="패스 1302" d="M44.786,20.078a.918.918,0,0,0-.747,1.048c.006.032.011.063.017.093s.016.087.026.13c.015.072.033.144.051.215.007.027.015.053.024.08.015.054.031.109.048.163.007.023.015.045.023.067.021.063.043.126.067.188l.014.037c.031.078.063.155.1.232a.918.918,0,0,0,1.676-.748c-.024-.052-.046-.105-.067-.159l-.006-.016c-.015-.041-.03-.082-.045-.124l-.015-.045c-.011-.033-.02-.066-.029-.1s-.011-.037-.016-.054c-.011-.044-.022-.088-.032-.134-.006-.027-.011-.054-.016-.08l-.01-.048a.918.918,0,0,0-1.063-.745" transform="translate(-16.781 -7.647)" fill="#346739"/>
        <path id="패스_1303" data-name="패스 1303" d="M51.877,19.542a1.349,1.349,0,1,1-1.349-1.349,1.349,1.349,0,0,1,1.349,1.349" transform="translate(-18.745 -6.934)" fill="#f29500"/>
        <path id="패스_1304" data-name="패스 1304" d="M28.1,13.181a.986.986,0,1,1-.986-.986.986.986,0,0,1,.986.986" transform="translate(-9.96 -4.648)" fill="#00a0cf"/>
        <path id="패스_1305" data-name="패스 1305" d="M20.186,21.48a.917.917,0,0,1,.9-.917h-.014a1.79,1.79,0,0,1-1.788-1.787V13a.918.918,0,1,0-1.836,0v5.771A3.628,3.628,0,0,0,21.075,22.4h.014a.917.917,0,0,1-.9-.917" transform="translate(-6.652 -4.606)" fill="#e5277c"/>
        <path id="패스_1306" data-name="패스 1306" d="M26.094,16.261h-.01a.918.918,0,0,0-.918.908l-.035,3.186v.01a1.79,1.79,0,0,1-1.788,1.788H23.33a.918.918,0,0,1,0,1.835h.014a3.628,3.628,0,0,0,3.624-3.618L27,17.189a.918.918,0,0,0-.908-.928" transform="translate(-8.892 -6.198)" fill="#35a65d"/>
        <path id="패스_1307" data-name="패스 1307" d="M23.677,26.7a.9.9,0,1,0-.9.917.917.917,0,0,0,.9-.917" transform="translate(-8.336 -9.828)" fill="#65363f"/>
        <path id="패스_1308" data-name="패스 1308" d="M50.232,26.979a.918.918,0,0,1,.149-1.29,6.137,6.137,0,0,1-8.612-.993,7.539,7.539,0,0,1-1.4-3.051,3.492,3.492,0,0,1-1.657.96,9.462,9.462,0,0,0,1.621,3.233,7.974,7.974,0,0,0,11.191,1.289.917.917,0,0,1-1.29-.149" transform="translate(-14.755 -8.25)" fill="#e5277c"/>
        <path id="패스_1309" data-name="패스 1309" d="M32.97,17.773h.918V14.441l-.931-.013a.918.918,0,0,1-.9-.923v5.186a.918.918,0,0,1,.918-.918" transform="translate(-12.217 -5.147)" fill="#e5277c"/>
        <path id="패스_1310" data-name="패스 1310" d="M32.053,21.885v3.262a.918.918,0,1,0,1.836,0V22.8h-.918a.918.918,0,0,1-.918-.918" transform="translate(-12.217 -8.341)" fill="#e5277c"/>
        <path id="패스_1311" data-name="패스 1311" d="M36.827,16.712a.919.919,0,0,1,1,.823c.014.144.037.293.066.446a3.49,3.49,0,0,0-2.5-5.918l-2.344-.032a.913.913,0,0,0-.82.481.918.918,0,0,1,1.725.438v.93l1.419.02h.012a1.656,1.656,0,1,1,0,3.311H33.957v1.837h1.431a3.486,3.486,0,0,0,.852-.106A7.3,7.3,0,0,1,36,17.717a.918.918,0,0,1,.823-1" transform="translate(-12.286 -4.585)" fill="#f29500"/>
        <path id="패스_1312" data-name="패스 1312" d="M40.152,20.416a.918.918,0,0,0-1.827.181,7.3,7.3,0,0,0,.238,1.225,3.5,3.5,0,0,0,1.656-.96c-.03-.152-.052-.3-.066-.446" transform="translate(-14.606 -7.466)" fill="#e61f10"/>
        <path id="패스_1313" data-name="패스 1313" d="M32.053,13.465v.007c0-.018,0-.035,0-.053,0,.015,0,.03,0,.045" transform="translate(-12.217 -5.115)" fill="#f29500"/>
        <path id="패스_1314" data-name="패스 1314" d="M32.97,20.4a.918.918,0,1,0,0,1.836h.918V20.4Z" transform="translate(-12.217 -7.776)" fill="#e61f10"/>
        <path id="패스_1315" data-name="패스 1315" d="M32.959,13.866l.931.013v-.93a.918.918,0,0,0-1.725-.438v0a.8.8,0,0,0-.037.077l0,.013c-.009.023-.018.046-.025.07,0,.007,0,.015-.007.024s-.012.041-.016.063,0,.022-.006.033-.007.038-.009.057,0,.027,0,.041,0,.035,0,.053a.917.917,0,0,0,.9.923" transform="translate(-12.218 -4.585)" fill="#e61f10"/>
        <path id="패스_1316" data-name="패스 1316" d="M58.107,10.684a7.887,7.887,0,0,0-4.371-2.793.918.918,0,0,0-.429,1.785,6.13,6.13,0,0,1,2.37,10.76.918.918,0,1,1,1.141,1.438,7.965,7.965,0,0,0,1.29-11.191" transform="translate(-20.05 -2.998)" fill="#35a65d"/>
        <path id="패스_1317" data-name="패스 1317" d="M58.645,28.206A.918.918,0,1,0,58.5,29.5a.918.918,0,0,0,.149-1.29" transform="translate(-21.729 -10.618)" fill="#65363f"/>
        <path id="패스_1318" data-name="패스 1318" d="M10.631,19H7.521a.918.918,0,0,0,0,1.836H9.713v-.918A.918.918,0,0,1,10.631,19" transform="translate(-2.517 -7.242)" fill="#35a65d"/>
        <path id="패스_1319" data-name="패스 1319" d="M14.165,26.289l.018-.02-.02.023,0,0" transform="translate(-5.398 -10.012)" fill="#00a0cf"/>
        <path id="패스_1320" data-name="패스 1320" d="M7.2,23.44v-.4a3.287,3.287,0,0,1-5.36-2.551.918.918,0,0,1-1.837,0,5.124,5.124,0,0,0,8.761,3.608A.918.918,0,0,1,7.2,23.44" transform="translate(0 -7.807)" fill="#00a0cf"/>
        <path id="패스_1321" data-name="패스 1321" d="M12.546,19h0a.918.918,0,1,1,0,1.836h-.918v1.632a3.344,3.344,0,0,0,.265-.24.917.917,0,0,1,1.569.675c0-.01,0-.02,0-.03V19.918A.918.918,0,0,0,12.546,19" transform="translate(-4.432 -7.242)" fill="#f29500"/>
        <path id="패스_1322" data-name="패스 1322" d="M13.465,19.917a.918.918,0,1,0-1.836,0v.918h.918a.918.918,0,0,0,.918-.918" transform="translate(-4.433 -7.241)" fill="#5b6d35"/>
        <path id="패스_1323" data-name="패스 1323" d="M11.894,24.049a3.447,3.447,0,0,1-.265.24v.405a.918.918,0,0,0,1.564.652l0,0,.021-.023c.014-.015.028-.03.04-.046s.017-.022.025-.033l.028-.039c.009-.013.016-.026.024-.039l.023-.038c.007-.013.013-.027.019-.041s.013-.027.019-.041.011-.027.015-.04.011-.03.015-.045.007-.027.011-.041.008-.03.011-.046,0-.03.007-.046,0-.028.006-.043,0-.039,0-.058a.917.917,0,0,0-1.569-.675" transform="translate(-4.433 -9.062)" fill="#346739"/>
        <path id="패스_1324" data-name="패스 1324" d="M31.617,3.362l.006,0L30.389.272a.432.432,0,0,0-.8,0L27.871,4.566a.394.394,0,0,0-.03.162.427.427,0,0,0,.825.155l.324-.8.347-.855.655-1.642.648,1.642.2.5h0a.428.428,0,1,0,.771-.368" transform="translate(-10.612 0)" fill="#231815"/>
        <path id="패스_1325" data-name="패스 1325" d="M33.818,6.767a.484.484,0,0,0-.224.912.426.426,0,0,0,.207.055h.017a.484.484,0,0,0,0-.967" transform="translate(-12.706 -2.579)" fill="#231815"/>
        <path id="패스_1326" data-name="패스 1326" d="M15.5,3.655v.071A1.519,1.519,0,0,1,15.058,4.8a1.668,1.668,0,0,1-1.2.478h-.056a1.546,1.546,0,0,1-1.364-.886.389.389,0,0,1-.035-.176.4.4,0,0,1,.239-.373.361.361,0,0,1,.169-.035.415.415,0,0,1,.38.239.7.7,0,0,0,.64.408h.035a.817.817,0,0,0,.6-.225.708.708,0,0,0,.218-.506V3.7c-.021-.324-.633-.611-.9-.689l-.028-.014a1.4,1.4,0,0,1-1.09-1.35V1.587A1.164,1.164,0,0,1,13.145.68a1.583,1.583,0,0,1,.964-.316h.063a1.515,1.515,0,0,1,.844.309A.417.417,0,0,1,15.178,1a.4.4,0,0,1-.084.246.419.419,0,0,1-.33.162.411.411,0,0,1-.246-.077.678.678,0,0,0-.373-.141H14.1c-.345,0-.612.176-.619.429v.028c0,.345.267.471.541.584.21.063,1.434.457,1.477,1.428" transform="translate(-4.729 -0.138)" fill="#231815"/>
        <path id="패스_1327" data-name="패스 1327" d="M22.753,4.89V2.014l-1.1,1.477a.409.409,0,0,1-.661,0l-1.1-1.477V4.89a.412.412,0,0,1-.823,0V.783a.41.41,0,0,1,.415-.408A.4.4,0,0,1,19.8.537l1.519,2.025L22.837.537a.4.4,0,0,1,.324-.162.41.41,0,0,1,.415.408V4.89a.412.412,0,0,1-.823,0" transform="translate(-7.265 -0.143)" fill="#231815"/>
        <path id="패스_1328" data-name="패스 1328" d="M39.5,4.673a.413.413,0,0,1,.063.218.407.407,0,0,1-.2.345.392.392,0,0,1-.211.063.419.419,0,0,1-.352-.189L37.893,3.66H37.2V4.89a.414.414,0,0,1-.415.408.408.408,0,0,1-.408-.408V.784a.408.408,0,0,1,.408-.408h1.118a1.978,1.978,0,0,1,.8.2,1.521,1.521,0,0,1,.851,1.441,1.957,1.957,0,0,1-.2.8,1.491,1.491,0,0,1-.619.647ZM37.2,2.837h.7a.717.717,0,0,0,.71-.373,1.1,1.1,0,0,0,.119-.451.709.709,0,0,0-.394-.71,1.092,1.092,0,0,0-.436-.106h-.7Z" transform="translate(-13.867 -0.143)" fill="#231815"/>
        <path id="패스_1329" data-name="패스 1329" d="M45.51.376H43.04a.412.412,0,0,0,0,.823h.819V4.881a.416.416,0,0,0,.051.2.409.409,0,0,0,.361.219h.008a.408.408,0,0,0,.361-.219.416.416,0,0,0,.051-.2V1.2h.819a.412.412,0,0,0,0-.823" transform="translate(-16.25 -0.143)" fill="#231815"/>
      </g>
    </g>
    <g id="그룹_623" data-name="그룹 623" transform="translate(208.715 4175.403)">
      <g id="그룹_6" data-name="그룹 6" transform="translate(0 0)" clip-path="url(#clip-path-3)">
        <path id="패스_21" data-name="패스 21" d="M10.633,18.125a2.361,2.361,0,0,0-.768-.436,2.867,2.867,0,0,0-1.839,0,2.353,2.353,0,0,0-.768.436,2.062,2.062,0,0,0-.526.685,2.113,2.113,0,0,0,0,1.77,2.076,2.076,0,0,0,.526.684,2.382,2.382,0,0,0,.768.436,2.881,2.881,0,0,0,1.839,0,2.39,2.39,0,0,0,.768-.436,2.086,2.086,0,0,0,.526-.684,2.121,2.121,0,0,0,0-1.77,2.073,2.073,0,0,0-.526-.685M9.728,20.5a1.185,1.185,0,0,1-.782.3,1.249,1.249,0,0,1-.428-.076,1.089,1.089,0,0,1-.366-.221,1.108,1.108,0,0,1-.256-.353,1.061,1.061,0,0,1-.1-.456.987.987,0,0,1,.353-.8,1.2,1.2,0,0,1,.795-.3,1.189,1.189,0,0,1,.782.3.988.988,0,0,1,.352.8,1,1,0,0,1-.352.809" transform="translate(-1.354 -3.631)" fill="#078d68"/>
        <path id="패스_22" data-name="패스 22" d="M9.753,6.462q-.111.236-.243.457c-.087.147-.173.3-.255.456.2.12.4.243.595.366s.392.251.595.38V10.97H8.162v1.121h2.282v2.281h1.327V7.444q-.5-.249-1-.491T9.753,6.462" transform="translate(-1.69 -1.338)" fill="#078d68"/>
        <path id="패스_23" data-name="패스 23" d="M6.126,13.862q-.595-.539-1.168-1.086T3.8,11.691v-.775H5.877V9.81H3.789V8.538H2.42V9.81H.236v1.106h2.17v.775L0,13.9l.747.815,2.365-1.978L5.325,14.65Z" transform="translate(0 -1.768)" fill="#078d68"/>
        <path id="패스_24" data-name="패스 24" d="M25.705,14.373V7.444l-2.033-.982q-.111.234-.242.456t-.256.456q.3.181.595.367t.595.38v.927H21.888V10.1h2.476v1.148H21.888v1.065h2.476v2.061Z" transform="translate(-4.531 -1.338)" fill="#078d68"/>
        <path id="패스_25" data-name="패스 25" d="M20.955,17.972H19.586V21.5h5.74v-1.12H20.955Z" transform="translate(-4.055 -3.721)" fill="#078d68"/>
        <path id="패스_26" data-name="패스 26" d="M20.79,13.73H17.125V9.636H15.784v5.227H20.79Z" transform="translate(-3.268 -1.995)" fill="#078d68"/>
        <path id="패스_27" data-name="패스 27" d="M32.574,10.383V9.305H31.233v1.078a2.276,2.276,0,0,0-1.349.8,2.2,2.2,0,0,0-.477,1.4,2.3,2.3,0,0,0,.173.9,2.111,2.111,0,0,0,.5.726,2.378,2.378,0,0,0,.781.492,2.83,2.83,0,0,0,1.037.179,2.887,2.887,0,0,0,1.044-.179,2.367,2.367,0,0,0,.787-.492,2.111,2.111,0,0,0,.5-.726,2.3,2.3,0,0,0,.174-.9,2.166,2.166,0,0,0-.491-1.4,2.328,2.328,0,0,0-1.335-.8m.215,3.091a1.2,1.2,0,0,1-.892.339,1.184,1.184,0,0,1-.878-.339,1.207,1.207,0,0,1-.339-.893A1.163,1.163,0,0,1,31.9,11.365a1.208,1.208,0,0,1,.892.339,1.189,1.189,0,0,1,.339.877,1.21,1.21,0,0,1-.339.893" transform="translate(-6.088 -1.927)" fill="#078d68"/>
        <path id="패스_28" data-name="패스 28" d="M37.84,6.918c-.085.147-.162.3-.236.456.193.121.391.243.588.367s.395.251.588.38v6.252h1.342V7.443l-2.032-.982q-.126.236-.248.457" transform="translate(-7.785 -1.338)" fill="#078d68"/>
        <path id="패스_29" data-name="패스 29" d="M53.256,15.978V14.885h-10.4v1.093h4.522V17.43H45.3v4.094h5.5V17.43H48.733V15.978Zm-3.748,4.467H46.6V18.5h2.9Z" transform="translate(-8.872 -3.082)" fill="#078d68"/>
        <path id="패스_30" data-name="패스 30" d="M51.366,11.2H47.619v-.955h3.526V7.229H46.291V8.322h3.527v.885H46.291v3.1h5.075Z" transform="translate(-9.584 -1.497)" fill="#078d68"/>
        <path id="패스_31" data-name="패스 31" d="M1.361,4.164h.545V3.014H3.264V2.567H.16v.446h1.2Z" transform="translate(-0.033 -0.532)" fill="#078d68"/>
        <path id="패스_32" data-name="패스 32" d="M2.349.9a.126.126,0,0,1,.013.072c-.008.157-.025.327-.051.5s-.055.339-.086.478L2.216,2l.489.076.009-.04c.048-.2.086-.416.117-.627A4.673,4.673,0,0,0,2.88.836.475.475,0,0,0,2.8.561.366.366,0,0,0,2.488.445H.574V.891H2.3c.023,0,.04,0,.045.012" transform="translate(-0.119 -0.092)" fill="#078d68"/>
        <path id="패스_33" data-name="패스 33" d="M7.706,2.831H6.423V2.415c.159-.006.312-.018.458-.037a2.707,2.707,0,0,0,.463-.1l.038-.012-.093-.423-.043.01a3.5,3.5,0,0,1-.523.093c-.161.016-.325.024-.488.024H5.6a.075.075,0,0,1-.057-.017.1.1,0,0,1-.017-.064V1.668H6.614a1.691,1.691,0,0,0,.3-.026,1.49,1.49,0,0,0,.294-.086l.028-.011V.494H4.985v.45H6.7v.289H4.985v.689a.5.5,0,0,0,.128.367.561.561,0,0,0,.4.126h.356v.415H4.6v.446h3.1Z" transform="translate(-0.953 -0.103)" fill="#078d68"/>
        <path id="패스_34" data-name="패스 34" d="M11.755,1.109h-.572v.356h.572v.45a.838.838,0,0,1-.037.266.416.416,0,0,1-.116.18,1.111,1.111,0,0,0-.213-.066,1.094,1.094,0,0,0-.228-.024,1.118,1.118,0,0,0-.363.059.976.976,0,0,0-.3.165.775.775,0,0,0-.2.256.749.749,0,0,0-.075.335.739.739,0,0,0,.075.332.785.785,0,0,0,.2.255.939.939,0,0,0,.3.163,1.139,1.139,0,0,0,.363.057,1.094,1.094,0,0,0,.355-.057.931.931,0,0,0,.3-.163.8.8,0,0,0,.2-.255.719.719,0,0,0,.076-.332.739.739,0,0,0-.055-.288.849.849,0,0,0-.149-.237.751.751,0,0,0,.229-.272.8.8,0,0,0,.084-.366V.4h-.446ZM11.5,3.417a.492.492,0,0,1-.343.119.512.512,0,0,1-.351-.119.421.421,0,0,1-.135-.331.431.431,0,0,1,.135-.335.5.5,0,0,1,.351-.124.481.481,0,0,1,.343.124.439.439,0,0,1,.131.335.429.429,0,0,1-.131.331" transform="translate(-2.117 -0.083)" fill="#078d68"/>
        <path id="패스_35" data-name="패스 35" d="M9.819,1.472a3.917,3.917,0,0,1-.685.383l.164.369a3.506,3.506,0,0,0,.553-.28,3.031,3.031,0,0,0,.462-.354.545.545,0,0,1,.188.121c.052.057.1.117.156.178s.114.136.184.221l.29-.258c-.073-.089-.137-.165-.192-.228s-.109-.124-.164-.184a.774.774,0,0,0-.1-.07.361.361,0,0,0-.125-.044A1.431,1.431,0,0,0,10.7,1.08a1.47,1.47,0,0,0,.1-.259.3.3,0,0,0-.02-.2c-.029-.063-.1-.094-.211-.094h-.419a.474.474,0,0,0,.044-.117,1.057,1.057,0,0,0,.022-.133c0-.039,0-.086-.008-.139A.927.927,0,0,0,10.183,0L9.756.105c.008.026.015.053.021.08s.011.049.013.065a.461.461,0,0,1-.006.143.649.649,0,0,1-.037.135H9.216V.884H10.23c.032,0,.052.008.059.024s0,.039-.015.071a1.559,1.559,0,0,1-.454.493" transform="translate(-1.891 0)" fill="#078d68"/>
        <path id="패스_36" data-name="패스 36" d="M14.155,2.258h.528c.149,0,.305-.007.47-.021a2.408,2.408,0,0,0,.5-.1L15.588,1.8a2.96,2.96,0,0,1-.448.08c-.148.014-.3.021-.457.021h-.415a.116.116,0,0,1-.088-.028.131.131,0,0,1-.025-.09V.469h-.446v1.4a.379.379,0,0,0,.106.295.494.494,0,0,0,.34.1" transform="translate(-2.838 -0.097)" fill="#078d68"/>
        <path id="패스_37" data-name="패스 37" d="M15.7,3.98h-.889a.092.092,0,0,1-.072-.021.125.125,0,0,1-.017-.077V3.154h-.446v.818a.332.332,0,0,0,.116.278.51.51,0,0,0,.319.09h.994c.1,0,.192,0,.27-.008s.153-.013.224-.024.141-.029.211-.047.149-.041.236-.071l-.094-.336a2.623,2.623,0,0,1-.419.1,3.127,3.127,0,0,1-.431.028" transform="translate(-2.956 -0.653)" fill="#078d68"/>
        <path id="패스_38" data-name="패스 38" d="M16.343,2.717h.446V.4h-.446V.674h-.787v.345h.787V1.3h-.787v.349h.787Z" transform="translate(-3.221 -0.083)" fill="#078d68"/>
        <path id="패스_39" data-name="패스 39" d="M20.223.756a.107.107,0,0,1,.02.076,2.908,2.908,0,0,1-.02.347c-.013.105-.036.237-.067.393l.4.048a4.507,4.507,0,0,0,.086-.476A3.492,3.492,0,0,0,20.67.691.3.3,0,0,0,20.582.45a.408.408,0,0,0-.249-.064h-1.86V.738h1.68a.107.107,0,0,1,.071.017" transform="translate(-3.824 -0.08)" fill="#078d68"/>
        <path id="패스_40" data-name="패스 40" d="M21,1.973H19.426V1.4H18.98v.572h-.99v.352H21Z" transform="translate(-3.724 -0.291)" fill="#078d68"/>
        <path id="패스_41" data-name="패스 41" d="M19.244,4.335a1.223,1.223,0,0,0,.362.053,1.19,1.19,0,0,0,.356-.053.942.942,0,0,0,.3-.155.79.79,0,0,0,.2-.247.7.7,0,0,0,.076-.329.715.715,0,0,0-.075-.331.751.751,0,0,0-.2-.248.947.947,0,0,0-.3-.157,1.156,1.156,0,0,0-.36-.055,1.174,1.174,0,0,0-.362.055.947.947,0,0,0-.3.157.763.763,0,0,0-.2.248.734.734,0,0,0,.2.906.942.942,0,0,0,.3.155m.01-1.049a.588.588,0,0,1,.7,0,.394.394,0,0,1,.136.319.393.393,0,0,1-.136.321.6.6,0,0,1-.7,0,.393.393,0,0,1-.137-.321.4.4,0,0,1,.137-.319" transform="translate(-3.865 -0.583)" fill="#078d68"/>
        <path id="패스_42" data-name="패스 42" d="M25.667,1.668h.544V1.312h-.544V.4h-.446V2.678h.446Z" transform="translate(-5.221 -0.083)" fill="#078d68"/>
        <path id="패스_43" data-name="패스 43" d="M23.52,1.331a1.8,1.8,0,0,1-.262.28,2.989,2.989,0,0,1-.35.255c-.129.081-.262.158-.4.231l.2.356a4.876,4.876,0,0,0,.534-.319,2.9,2.9,0,0,0,.444-.373A1.876,1.876,0,0,0,24,1.337a1.2,1.2,0,0,0,.137-.465.436.436,0,0,0-.053-.253c-.04-.066-.128-.1-.264-.1h-1.26v.36h1.021A.123.123,0,0,1,23.663.9c.02.017.021.057.006.119a.857.857,0,0,1-.149.308" transform="translate(-4.66 -0.108)" fill="#078d68"/>
        <path id="패스_44" data-name="패스 44" d="M25.3,3.861a2.911,2.911,0,0,1-.4.086,3.314,3.314,0,0,1-.413.023h-.932c-.036,0-.059-.009-.068-.027a.2.2,0,0,1-.013-.082V3.106h-.446V4a.3.3,0,0,0,.1.244.455.455,0,0,0,.3.085h1.108a2.868,2.868,0,0,0,.416-.028,2.912,2.912,0,0,0,.445-.109Z" transform="translate(-4.768 -0.643)" fill="#078d68"/>
      </g>
    </g>
    <circle id="타원_24" data-name="타원 24" cx="1.66" cy="1.66" r="1.66" transform="translate(157.612 4182.872)" fill="#078d68"/>
    <circle id="타원_25" data-name="타원 25" cx="1.66" cy="1.66" r="1.66" transform="translate(199.109 4182.872)" fill="#078d68"/>
  </g>
</svg>
