<svg xmlns="http://www.w3.org/2000/svg" xmlns:xlink="http://www.w3.org/1999/xlink" width="44" height="44" viewBox="0 0 44 44">
  <defs>
    <clipPath id="clip-path">
      <rect id="사각형_75" data-name="사각형 75" width="31.943" height="31.943" fill="none"/>
    </clipPath>
  </defs>
  <g id="그룹_125" data-name="그룹 125" transform="translate(-173 -2304)">
    <circle id="타원_6" data-name="타원 6" cx="22" cy="22" r="22" transform="translate(173 2304)" fill="#078d68"/>
    <g id="그룹_115" data-name="그룹 115" transform="translate(182.888 2300.388)">
      <g id="그룹_22" data-name="그룹 22" transform="translate(-3.888 9.612)" clip-path="url(#clip-path)">
        <path id="패스_65" data-name="패스 65" d="M31.9,15.046A15.988,15.988,0,0,0,17.527.079c-.252-.024-.51-.027-.765-.039S16.239,0,15.971,0c-.473,0-.939.031-1.4.071-.215.019-.428.048-.64.075A15.929,15.929,0,0,0,.047,15.046c-.017.308-.047.613-.047.925s.029.618.047.926A15.849,15.849,0,0,0,1.391,22.46,16.1,16.1,0,0,0,13.93,31.8c.213.027.426.055.64.074.463.041.928.071,1.4.071.267,0,.527-.027.791-.04s.513-.015.765-.039A15.944,15.944,0,0,0,31.9,16.9c.018-.308.047-.613.047-.926s-.029-.617-.047-.925M27.341,7.632H22.356a21.584,21.584,0,0,0-3.484-5.479,14.13,14.13,0,0,1,8.469,5.479M9.13,15.046a18.773,18.773,0,0,1,1.133-5.563H21.1a18.773,18.773,0,0,1,1.133,5.563ZM22.237,16.9A18.777,18.777,0,0,1,21.1,22.46H10.263A18.777,18.777,0,0,1,9.13,16.9ZM15.32,1.884c.217-.01.431-.033.651-.033l.041,0a20.033,20.033,0,0,1,4.3,5.779H11.055A20.009,20.009,0,0,1,15.32,1.884m-2.981.458a21.538,21.538,0,0,0-3.327,5.29H4.6a14.134,14.134,0,0,1,7.736-5.29M3.444,9.483H8.3a20.581,20.581,0,0,0-1.019,5.563H1.9A14,14,0,0,1,3.444,9.483m0,12.976A14,14,0,0,1,1.9,16.9H7.279A20.581,20.581,0,0,0,8.3,22.46ZM4.6,24.311H9.012a21.538,21.538,0,0,0,3.327,5.29A14.137,14.137,0,0,1,4.6,24.311M16.013,30.09l-.041,0c-.22,0-.434-.023-.651-.033a20.009,20.009,0,0,1-4.265-5.748h9.257a20.033,20.033,0,0,1-4.3,5.779m2.859-.3a21.584,21.584,0,0,0,3.484-5.479h4.985a14.134,14.134,0,0,1-8.469,5.479M28.5,22.46h-5.43A20.635,20.635,0,0,0,24.088,16.9h5.957A14.007,14.007,0,0,1,28.5,22.46m-4.411-7.414a20.635,20.635,0,0,0-1.019-5.563H28.5a14.007,14.007,0,0,1,1.545,5.563Z" transform="translate(0 0)" fill="#fff"/>
      </g>
    </g>
  </g>
</svg>
